<svg width="39" height="38" viewBox="0 0 39 38" fill="none" xmlns="http://www.w3.org/2000/svg">
<path d="M38.475 23.5125C38.475 23.2987 38.3895 23.085 38.2185 22.914L33.687 18.3825L34.5847 17.4847C35.739 16.3305 35.739 14.4067 34.5847 13.2525C34.029 12.6968 33.2595 12.3975 32.49 12.3975C31.7205 12.3975 30.951 12.6968 30.3525 13.2525L29.4548 14.1502L24.9232 9.61875C24.5812 9.27675 24.0255 9.27675 23.7262 9.61875L21.8025 11.5425H20.52V5.13C20.52 4.65975 20.1352 4.275 19.665 4.275H13.2525V2.9925C13.2525 1.32525 11.9272 0 10.26 0C8.59275 0 7.2675 1.32525 7.2675 2.9925V4.275H0.855C0.38475 4.275 0 4.65975 0 5.13V12.3975C0 12.8678 0.38475 13.2525 0.855 13.2525H2.9925C3.71925 13.2525 4.275 13.8082 4.275 14.535C4.275 15.219 3.71925 15.8175 2.9925 15.8175H0.855C0.38475 15.8175 0 16.2022 0 16.6725V23.94C0 24.4102 0.38475 24.795 0.855 24.795H11.115L15.561 29.241C15.903 29.583 16.416 29.583 16.758 29.241L18.2542 27.7447C18.7245 27.2745 19.5795 27.2745 20.0497 27.7447C20.3062 28.0012 20.4345 28.3005 20.4345 28.6425C20.4345 28.9845 20.3062 29.3265 20.0497 29.5402L18.5535 31.0365C18.2115 31.3785 18.2115 31.8915 18.5535 32.2335L23.6835 37.3635C23.8545 37.5345 24.0682 37.62 24.282 37.62C24.4957 37.62 24.7095 37.5345 24.8805 37.3635L29.412 32.832L30.3097 33.7297C30.8655 34.2855 31.635 34.5847 32.4473 34.5847C33.2595 34.5847 33.9862 34.2855 34.542 33.7297C35.6963 32.5755 35.6963 30.6517 34.542 29.4975L33.687 28.6852L38.2185 24.1537C38.3895 23.9827 38.475 23.769 38.475 23.5125ZM1.71 23.085V17.5275H2.9925C4.65975 17.5275 5.985 16.2022 5.985 14.535C5.985 12.8677 4.65975 11.5425 2.9925 11.5425H1.71V5.985H8.1225C8.59275 5.985 8.9775 5.60025 8.9775 5.13V2.9925C8.9775 2.26575 9.53325 1.71 10.26 1.71C10.9867 1.71 11.5425 2.26575 11.5425 2.9925V5.13C11.5425 5.60025 11.9272 5.985 12.3975 5.985H18.81V12.3975C18.81 12.8678 19.1947 13.2525 19.665 13.2525H21.8025C22.5292 13.2525 23.085 13.8082 23.085 14.535C23.085 15.219 22.5292 15.8175 21.8025 15.8175H19.665C19.1947 15.8175 18.81 16.2022 18.81 16.6725V23.085H1.71ZM31.8915 28.0867C31.7205 28.215 31.635 28.4287 31.635 28.6852C31.635 28.899 31.7205 29.1127 31.8915 29.2837L33.3877 30.78C33.6442 31.0365 33.7725 31.3357 33.7725 31.6777C33.7725 32.0197 33.6442 32.3617 33.3877 32.5755C32.9175 33.0457 32.0625 33.0457 31.5922 32.5755L30.096 31.0792C29.754 30.7372 29.241 30.7372 28.899 31.0792L24.3247 35.6107L20.3917 31.6777L21.2895 30.78C21.8452 30.2242 22.1445 29.4547 22.1445 28.6425C22.1445 27.8302 21.8452 27.1035 21.2895 26.5477C20.7337 25.992 19.9642 25.65 19.152 25.65C18.3397 25.65 17.613 25.9492 17.0572 26.5477L16.1595 27.4455L13.509 24.795H19.665C20.1352 24.795 20.52 24.4102 20.52 23.94V17.5275H21.8025C23.4697 17.5275 24.795 16.2022 24.795 14.535C24.795 13.5517 24.3247 12.6967 23.598 12.141L24.3247 11.4142L28.8562 15.9457C29.1982 16.2877 29.754 16.2877 30.0532 15.9457L31.5495 14.4495C32.0197 13.9792 32.8747 13.9792 33.345 14.4495C33.858 14.9625 33.858 15.7747 33.345 16.245L31.8487 17.7412C31.6777 17.9122 31.5922 18.126 31.5922 18.3397C31.5922 18.5535 31.6777 18.7672 31.8487 18.9382L36.3802 23.4697L31.8915 28.0867Z" fill="#103EB4"/>
</svg>
