<?xml version="1.0" encoding="utf-8"?><svg xmlns="http://www.w3.org/2000/svg" xmlns:xlink="http://www.w3.org/1999/xlink"><symbol fill="none" viewBox="0 0 11 9" id="arrow" xmlns="http://www.w3.org/2000/svg"><path d="M10.885 4.5L7.096 0H0l3.788 4.5L0 9h7.096l3.789-4.5z" fill="#27CDC2"/></symbol><symbol fill="none" viewBox="0 0 24 24" id="check" xmlns="http://www.w3.org/2000/svg"><path d="M12 0C5.351 0 0 5.392 0 12s5.392 12 12 12 12-5.392 12-12S18.649 0 12 0zM9.69 17.919L9.567 18l-4.906-4.946 2.311-2.27 2.635 2.675 7.419-7.418 2.31 2.31L9.69 17.92z" fill="#103EB4"/></symbol><symbol fill="none" viewBox="0 0 45 38" id="message" xmlns="http://www.w3.org/2000/svg"><path d="M29.128 0a14.9 14.9 0 0 0-7.061 1.773A14.908 14.908 0 0 0 15.005 0C6.732 0 0 6.731 0 15.005v22.613l14.123-7.062v7.062L29.34 30.01c8.176-.113 14.794-6.8 14.794-15.004C44.134 6.732 37.403 0 29.128 0zm-14.33 28.246l-.675.337-12.358 6.178V15.005c0-7.3 5.94-13.24 13.24-13.24 1.89 0 3.684.405 5.312 1.121.302.133.599.274.889.429.295.157.58.332.861.51a13.32 13.32 0 0 1 4.64 5.002c.152.288.294.582.425.882.127.288.235.585.341.883.204.574.382 1.159.506 1.765.059.29.095.587.135.883.04.292.067.586.087.883.02.293.045.585.045.883 0 .297-.025.59-.045.882-.02.297-.048.591-.087.883-.04.296-.076.593-.135.883a13.068 13.068 0 0 1-.506 1.765c-.106.298-.214.595-.34.883a13.246 13.246 0 0 1-11.244 7.9c-.294.018-.586.044-.884.044h-.208zm14.33 0h-.208L15.888 34.76v-4.795c5.69-.334 10.53-3.84 12.775-8.782h7.527V19.42h-6.841c.176-.573.307-1.165.415-1.765h6.426v-1.766h-6.223c.017-.293.044-.585.044-.883 0-.297-.027-.588-.045-.882h6.224v-1.766h-6.427c-.108-.6-.24-1.191-.416-1.765h6.843V8.827h-7.526a15.078 15.078 0 0 0-4.847-5.941 13.152 13.152 0 0 1 5.311-1.12c7.301 0 13.24 5.939 13.24 13.24 0 7.3-5.939 13.24-13.24 13.24z" fill="#103EB4"/><path d="M15.719 10.592h6.348V8.827H7.944v1.765h7.775zm-.669 3.531h7.017v-1.766H7.944v1.766h7.106zm-.045 3.531h7.062v-1.766H7.944v1.766h7.062zm7.062 3.53V19.42H7.944v1.764h14.123z" fill="#103EB4"/></symbol><symbol id="pdf" viewBox="0 0 40.6 47.1" xmlns="http://www.w3.org/2000/svg"><style>.dst0{fill:#fff}</style><path class="dst0" d="M40.4 10L30.6.3c-.1-.1-.2-.1-.3-.2 0-.1-.1-.1-.2-.1H6.4c-.8 0-1.6.3-2.2.9-.6.6-.9 1.4-.9 2.2v15.6c0 .2.1.4.2.6.2.2.4.2.6.2.2 0 .4-.1.6-.2.2-.2.2-.4.2-.6V3.1c0-.4.2-.8.4-1.1.3-.2.7-.4 1.1-.4h22.9v8.9c0 .2.1.4.2.6.2.2.4.2.6.2H39V44c0 .4-.2.8-.4 1.1s-.7.4-1.1.4H6.4c-.4 0-.8-.2-1.1-.4-.3-.3-.4-.7-.4-1.1v-4.2c0-.2-.1-.4-.2-.6-.2-.1-.4-.2-.6-.2-.2 0-.4.1-.6.2-.2.2-.2.4-.2.6V44c0 .8.3 1.6.9 2.2.6.6 1.4.9 2.2.9h31.1c.8 0 1.6-.3 2.2-.9.6-.6.9-1.4.9-2.2V10.6c0-.1 0-.2-.1-.3 0-.1 0-.2-.1-.3zm-9.5-7.2l7 7h-7v-7z"/><path class="dst0" d="M16.5 26.3h-1.4v5.8h1.6c.9.1 1.7-.2 2.4-.7.3-.3.5-.6.6-1 .1-.4.2-.8.2-1.2-.1-1.9-1.2-2.9-3.4-2.9zm-8.3 0H6.8v3.4h1.6c.3 0 .6 0 .9-.1.3-.1.5-.2.8-.4.2-.2.3-.4.4-.6.1-.2.1-.5.1-.7 0-.2 0-.5-.1-.7-.1-.2-.2-.4-.4-.6-.6-.2-1.2-.3-1.9-.3z"/><path class="dst0" d="M34.1 34.7v-11c0-.3-.1-.7-.2-1s-.3-.6-.6-.9c-.2-.2-.5-.4-.9-.6-.3-.1-.7-.2-1-.2H2.6c-.3 0-.7.1-1 .2-.3.1-.6.3-.9.6-.2.2-.4.5-.6.9-.1.3-.2.7-.2 1v11c0 .3.1.7.2 1 .1.3.3.6.6.9.3.3.6.4.9.6.3.1.7.2 1 .2h28.9c.3 0 .7-.1 1-.2.3-.1.6-.3.9-.6.2-.2.4-.5.6-.9s.1-.6.1-1zm-23-4.4c-.8.5-1.8.8-2.8.7H6.8v2.5H5.3V25h2.9c1-.1 2 .2 2.8.7.3.3.6.6.7 1 .2.4.2.8.2 1.2 0 .4 0 .8-.2 1.2-.1.6-.3.9-.6 1.2zm9 2c-1 .8-2.3 1.3-3.6 1.2h-2.8V25h2.9c1.3-.1 2.5.3 3.5 1.1.4.4.7.9 1 1.4.2.5.3 1.1.3 1.7 0 .6-.1 1.2-.3 1.7-.3.5-.6 1-1 1.4zm8.7-6h-4.2v2.3h3.8V30h-3.8v3.5h-1.4V25h5.7l-.1 1.3z"/></symbol><symbol fill="none" viewBox="0 0 23 17" id="play" xmlns="http://www.w3.org/2000/svg"><path d="M4.025 0C1.805 0 0 1.779 0 3.967v9.066C0 15.221 1.805 17 4.025 17h14.95C21.195 17 23 15.221 23 13.033V3.967C23 1.779 21.195 0 18.975 0H4.025zm0 1.133h14.95c1.603 0 2.875 1.254 2.875 2.834v9.066c0 1.58-1.272 2.834-2.875 2.834H4.025c-1.603 0-2.875-1.254-2.875-2.834V3.967c0-1.58 1.272-2.834 2.875-2.834zM8.877 4.25a.579.579 0 0 0-.384.178.562.562 0 0 0-.155.389v7.366c-.001.14.05.276.145.38a.578.578 0 0 0 .699.125l6.9-3.683a.571.571 0 0 0 .305-.5.56.56 0 0 0-.305-.5l-6.9-3.684a.582.582 0 0 0-.305-.071zm.61 1.523L14.61 8.5l-5.121 2.736V5.773z" fill="#fff" fill-opacity=".7"/></symbol><symbol fill="none" viewBox="0 0 39 38" id="puzzle" xmlns="http://www.w3.org/2000/svg"><path d="M38.475 23.512a.844.844 0 0 0-.257-.598l-4.531-4.532.898-.897c1.154-1.154 1.154-3.078 0-4.232a2.978 2.978 0 0 0-2.095-.855 3.16 3.16 0 0 0-2.138.854l-.897.898-4.532-4.531c-.342-.342-.897-.342-1.197 0l-1.924 1.924H20.52V5.13a.858.858 0 0 0-.855-.855h-6.412V2.992A2.974 2.974 0 0 0 10.26 0a2.974 2.974 0 0 0-2.992 2.993v1.282H.854A.858.858 0 0 0 0 5.13v7.268c0 .47.385.854.855.854h2.138a1.26 1.26 0 0 1 1.282 1.283c0 .684-.556 1.283-1.283 1.283H.856a.857.857 0 0 0-.855.854v7.268c0 .47.385.855.855.855h10.26l4.446 4.446a.827.827 0 0 0 1.197 0l1.496-1.496c.47-.47 1.325-.47 1.796 0 .256.256.384.555.384.897 0 .343-.128.684-.384.898l-1.497 1.497a.827.827 0 0 0 0 1.197l5.13 5.13a.844.844 0 0 0 .599.256.844.844 0 0 0 .599-.256l4.531-4.532.898.898c.556.556 1.325.855 2.137.855.813 0 1.54-.3 2.095-.855 1.154-1.154 1.154-3.078 0-4.232l-.855-.813 4.532-4.531a.87.87 0 0 0 .256-.642zM1.71 23.085v-5.558h1.283a2.974 2.974 0 0 0 2.992-2.992 2.974 2.974 0 0 0-2.993-2.992H1.71V5.985h6.413c.47 0 .854-.385.854-.855V2.993A1.26 1.26 0 0 1 10.26 1.71a1.26 1.26 0 0 1 1.283 1.283V5.13c0 .47.384.855.855.855h6.412v6.413c0 .47.385.854.855.854h2.137a1.26 1.26 0 0 1 1.283 1.283c0 .684-.556 1.283-1.283 1.283h-2.137a.857.857 0 0 0-.855.854v6.413H1.71zm30.181 5.002c-.17.128-.256.342-.256.598 0 .214.085.428.256.599l1.497 1.496c.256.256.385.556.385.898 0 .342-.129.684-.385.897-.47.47-1.325.47-1.796 0l-1.496-1.496a.827.827 0 0 0-1.197 0l-4.574 4.532-3.933-3.933.898-.898c.555-.556.855-1.325.855-2.138 0-.812-.3-1.538-.855-2.094a3.044 3.044 0 0 0-2.138-.898c-.812 0-1.539.3-2.095.898l-.897.898-2.651-2.651h6.156c.47 0 .855-.385.855-.855v-6.413h1.282a2.974 2.974 0 0 0 2.993-2.992c0-.983-.47-1.838-1.197-2.394l.727-.727 4.531 4.532c.342.342.898.342 1.197 0l1.496-1.496c.47-.47 1.326-.47 1.796 0 .513.513.513 1.325 0 1.795l-1.496 1.496a.844.844 0 0 0-.257.599c0 .213.086.427.257.598l4.531 4.532-4.489 4.617z" fill="#103EB4"/></symbol><symbol fill="none" viewBox="0 0 38 38" id="trophy" xmlns="http://www.w3.org/2000/svg"><path d="M32.62 4.514h-1.182c.103-1.187.163-2.435.163-3.762V0H6.02v.752c0 1.327.06 2.575.162 3.762H5c-2.757 0-5 2.244-5 5.001v.233a5.01 5.01 0 0 0 1.159 3.201l4.385 5.263a4.984 4.984 0 0 0 3.835 1.803 5.01 5.01 0 0 0 2.211-.518c2.042 2.55 4.071 3.82 4.963 4.295v6.304H13.83l-1.504 3.01h-1.792v4.514h16.552v-4.514h-1.792l-1.505-3.01h-2.722v-6.304c.892-.475 2.921-1.745 4.963-4.295a5.008 5.008 0 0 0 2.21.518 4.986 4.986 0 0 0 3.836-1.803l4.385-5.263a5.01 5.01 0 0 0 1.159-3.201v-.233c0-2.757-2.243-5-5-5zM6.7 17.248l-4.385-5.262a3.503 3.503 0 0 1-.81-2.238v-.233A3.5 3.5 0 0 1 5 6.02h1.34c.695 5.532 2.44 9.475 4.327 12.23a3.473 3.473 0 0 1-3.967-1zM25.582 34.61v1.505H12.038V34.61h13.544zm-2.723-3.01l.753 1.506h-9.604l.753-1.505h8.099zm-2.84-8.967l-.457.195v7.268h-1.504v-7.268l-.457-.195c-.099-.043-9.788-4.39-10.07-21.128H30.09c-.284 16.672-9.974 21.085-10.071 21.128zM36.115 9.748c0 .816-.288 1.611-.81 2.238l-4.385 5.262a3.473 3.473 0 0 1-3.967 1.002c1.887-2.756 3.632-6.7 4.327-12.23h1.34a3.5 3.5 0 0 1 3.495 3.495v.233z" fill="#103EB4"/></symbol></svg>