<svg width="45" height="38" viewBox="0 0 45 38" fill="none" xmlns="http://www.w3.org/2000/svg">
<path d="M29.1284 0C26.5763 0 24.1733 0.644069 22.067 1.77258C19.9607 0.644069 17.5576 0 15.0055 0C6.73129 0 0 6.73129 0 15.0055V37.6182L14.1229 30.5564V37.6182L29.3396 30.0094C37.5164 29.8956 44.134 23.2091 44.134 15.0055C44.134 6.73129 37.4027 0 29.1284 0ZM14.7974 28.2457L14.1229 28.583L1.76536 34.7615V15.0055C1.76536 7.70491 7.70491 1.76536 15.0055 1.76536C16.8949 1.76536 18.6893 2.16979 20.317 2.886C20.6188 3.0188 20.9159 3.16038 21.2055 3.31463C21.501 3.47199 21.7852 3.64665 22.067 3.82525C24.0149 5.06 25.6221 6.78123 26.7066 8.82679C26.8594 9.1148 27.001 9.40939 27.1325 9.70947C27.2588 9.99743 27.3673 10.294 27.4732 10.5921C27.6769 11.1656 27.8552 11.7509 27.9788 12.3575C28.0378 12.647 28.0743 12.9442 28.114 13.2402C28.1531 13.5317 28.1812 13.8257 28.201 14.1229C28.2205 14.4159 28.2457 14.7076 28.2457 15.0055C28.2457 15.3035 28.2205 15.5951 28.201 15.8882C28.1812 16.1854 28.1531 16.4794 28.114 16.7709C28.0743 17.0669 28.0379 17.3641 27.9789 17.6536C27.8553 18.2602 27.677 18.8454 27.4733 19.4189C27.3674 19.7171 27.2588 20.0136 27.1326 20.3016C27.001 20.6017 26.8594 20.8963 26.7068 21.1843C24.6135 25.1325 20.5821 27.8892 15.8882 28.201C15.5951 28.2205 15.3035 28.2457 15.0055 28.2457H14.7974ZM29.1284 28.2457H28.9202L15.8882 34.7615V29.9663C21.5778 29.6325 26.4181 26.1259 28.6632 21.1843H36.1898V20.3016V19.4189H29.3485C29.5253 18.8457 29.656 18.2537 29.7635 17.6536H36.1898V16.7709V15.8882H29.9668C29.9839 15.5946 30.0111 15.3035 30.0111 15.0055C30.0111 14.7076 29.9836 14.4166 29.9664 14.1229H36.1898V13.2402V12.3575H29.7627C29.6552 11.7572 29.5235 11.1656 29.3467 10.5921H36.1898V9.70947V8.82679H28.6643C27.5847 6.45001 25.9049 4.40833 23.817 2.886C25.4446 2.16979 27.2391 1.76536 29.1284 1.76536C36.429 1.76536 42.3686 7.70491 42.3686 15.0055C42.3686 22.3066 36.429 28.2457 29.1284 28.2457Z" fill="#103EB4"/>
<path d="M15.7187 10.5921H16.6607H22.067V9.70946V8.82678H17.4273H16.4436H15.4696H7.94409V9.70946V10.5921H14.7873H15.7187Z" fill="#103EB4"/>
<path d="M15.0501 14.1229H15.9329H22.067V13.2402V12.3575H16.1551H15.2622H14.3713H7.94409V13.2402V14.1229H14.1676H15.0501Z" fill="#103EB4"/>
<path d="M15.0055 17.6535H15.8882H22.067V16.7709V15.8882H15.8882H15.0055H14.1228H7.94409V16.7709V17.6535H14.1228H15.0055Z" fill="#103EB4"/>
<path d="M22.067 21.1843V20.3016V19.4189H15.8882H15.0055H14.1228H7.94409V20.3016V21.1843H14.1228H15.0055H15.8882H22.067Z" fill="#103EB4"/>
</svg>
