<?xml version="1.0" encoding="utf-8"?>
<!-- Generator: Adobe Illustrator 23.1.0, SVG Export Plug-In . SVG Version: 6.00 Build 0)  -->
<svg version="1.1" id="Слой_1" xmlns="http://www.w3.org/2000/svg" xmlns:xlink="http://www.w3.org/1999/xlink" x="0px" y="0px"
	 viewBox="0 0 40.6 47.1" style="enable-background:new 0 0 40.6 47.1;" xml:space="preserve">
<style type="text/css">
	.st0{fill:#FFFFFF;}
</style>
<g>
	<g>
		<path class="st0" d="M40.4,10l-9.8-9.7c-0.1-0.1-0.2-0.1-0.3-0.2C30.3,0,30.2,0,30.1,0H6.4C5.6,0,4.8,0.3,4.2,0.9
			C3.6,1.5,3.3,2.3,3.3,3.1v15.6c0,0.2,0.1,0.4,0.2,0.6c0.2,0.2,0.4,0.2,0.6,0.2c0.2,0,0.4-0.1,0.6-0.2c0.2-0.2,0.2-0.4,0.2-0.6V3.1
			c0-0.4,0.2-0.8,0.4-1.1C5.6,1.8,6,1.6,6.4,1.6h22.9v8.9c0,0.2,0.1,0.4,0.2,0.6c0.2,0.2,0.4,0.2,0.6,0.2H39V44
			c0,0.4-0.2,0.8-0.4,1.1s-0.7,0.4-1.1,0.4H6.4c-0.4,0-0.8-0.2-1.1-0.4C5,44.8,4.9,44.4,4.9,44v-4.2c0-0.2-0.1-0.4-0.2-0.6
			C4.5,39.1,4.3,39,4.1,39c-0.2,0-0.4,0.1-0.6,0.2c-0.2,0.2-0.2,0.4-0.2,0.6V44c0,0.8,0.3,1.6,0.9,2.2c0.6,0.6,1.4,0.9,2.2,0.9h31.1
			c0.8,0,1.6-0.3,2.2-0.9c0.6-0.6,0.9-1.4,0.9-2.2V10.6c0-0.1,0-0.2-0.1-0.3C40.5,10.2,40.5,10.1,40.4,10z M30.9,2.8l7,7h-7V2.8z"/>
		<path class="st0" d="M16.5,26.3h-1.4v5.8h1.6c0.9,0.1,1.7-0.2,2.4-0.7c0.3-0.3,0.5-0.6,0.6-1c0.1-0.4,0.2-0.8,0.2-1.2
			C19.8,27.3,18.7,26.3,16.5,26.3z"/>
		<path class="st0" d="M8.2,26.3H6.8v3.4h1.6c0.3,0,0.6,0,0.9-0.1c0.3-0.1,0.5-0.2,0.8-0.4c0.2-0.2,0.3-0.4,0.4-0.6
			c0.1-0.2,0.1-0.5,0.1-0.7c0-0.2,0-0.5-0.1-0.7c-0.1-0.2-0.2-0.4-0.4-0.6C9.5,26.4,8.9,26.3,8.2,26.3z"/>
		<path class="st0" d="M34.1,34.7v-11c0-0.3-0.1-0.7-0.2-1s-0.3-0.6-0.6-0.9c-0.2-0.2-0.5-0.4-0.9-0.6c-0.3-0.1-0.7-0.2-1-0.2H2.6
			c-0.3,0-0.7,0.1-1,0.2c-0.3,0.1-0.6,0.3-0.9,0.6c-0.2,0.2-0.4,0.5-0.6,0.9c-0.1,0.3-0.2,0.7-0.2,1v11c0,0.3,0.1,0.7,0.2,1
			c0.1,0.3,0.3,0.6,0.6,0.9C1,36.9,1.3,37,1.6,37.2c0.3,0.1,0.7,0.2,1,0.2h28.9c0.3,0,0.7-0.1,1-0.2c0.3-0.1,0.6-0.3,0.9-0.6
			c0.2-0.2,0.4-0.5,0.6-0.9S34.1,35.1,34.1,34.7z M11.1,30.3c-0.8,0.5-1.8,0.8-2.8,0.7H6.8v2.5H5.3V25h2.9c1-0.1,2,0.2,2.8,0.7
			c0.3,0.3,0.6,0.6,0.7,1c0.2,0.4,0.2,0.8,0.2,1.2c0,0.4,0,0.8-0.2,1.2C11.6,29.7,11.4,30,11.1,30.3z M20.1,32.3
			c-1,0.8-2.3,1.3-3.6,1.2h-2.8V25h2.9c1.3-0.1,2.5,0.3,3.5,1.1c0.4,0.4,0.7,0.9,1,1.4c0.2,0.5,0.3,1.1,0.3,1.7
			c0,0.6-0.1,1.2-0.3,1.7C20.8,31.4,20.5,31.9,20.1,32.3z M28.8,26.3h-4.2v2.3h3.8v1.4h-3.8v3.5h-1.4V25h5.7L28.8,26.3z"/>
	</g>
</g>
</svg>
