<svg width="23" height="17" viewBox="0 0 23 17" fill="none" xmlns="http://www.w3.org/2000/svg">
<path d="M4.025 0C1.80513 0 0 1.77896 0 3.96666V13.0333C0 15.221 1.80513 17 4.025 17H18.975C21.1949 17 23 15.221 23 13.0333V3.96666C23 1.77896 21.1949 0 18.975 0H4.025ZM4.025 1.13333H18.975C20.5777 1.13333 21.85 2.38722 21.85 3.96666V13.0333C21.85 14.6128 20.5777 15.8667 18.975 15.8667H4.025C2.42233 15.8667 1.15 14.6128 1.15 13.0333V3.96666C1.15 2.38722 2.42233 1.13333 4.025 1.13333ZM8.87656 4.25C8.73038 4.25903 8.59321 4.32269 8.49303 4.428C8.39285 4.5333 8.33723 4.67232 8.3375 4.81666V12.1833C8.33666 12.3235 8.38854 12.4589 8.48312 12.5636C8.5777 12.6682 8.70827 12.7347 8.84962 12.75C8.96423 12.7626 9.08004 12.741 9.18203 12.688L16.082 9.00466C16.1741 8.95636 16.2511 8.88429 16.3048 8.79617C16.3585 8.70805 16.3869 8.60719 16.3869 8.5044C16.3869 8.40161 16.3585 8.30077 16.3048 8.21265C16.2511 8.12453 16.1741 8.05246 16.082 8.00416L9.18203 4.32083C9.08884 4.26977 8.98308 4.24524 8.87656 4.25ZM9.4875 5.77291L14.6086 8.49999L9.4875 11.2359V5.77291Z" fill="white" fill-opacity="0.7"/>
</svg>
